PathFileType	4	(X/Y/Z)	D:\TRACE\v60_Jaco2_6-2-23\v60_baseline_2-platform.trc
DataRate	CameraRate	NumFrames	NumMarkers	Units	OrigDataRate	OrigDataStartFrame	OrigNumFrames
100.00	100.00	      37	5	mm	100.00	5478	      7303
Frame#	Time	Left_Front			Right_Front			Left_Aft			Right_Aft			Post			
		X1	Y1	Z1	X2	Y2	Z2	X3	Y3	Z3	X4	Y4	Z4	X5	Y5	Z5	

5478	54.770	-800.66809	8.86009	-638.75537	769.32483	10.01816	-644.36066	-708.79291	7.87183	496.11694	731.83252	5.83087	504.94629	-14.19376	1308.09021	-961.97900	
5479	54.780	-800.53534	9.00074	-638.76263	769.32544	10.09579	-644.37042	-708.75916	7.94439	496.06165	731.55353	6.00975	505.21783	-14.16648	1308.12598	-961.79449	
5480	54.790	-800.54279	9.00153	-638.77423	769.37769	10.12108	-644.39520	-708.73163	8.03490	496.03784	732.03699	5.96024	505.00964	-14.20212	1308.16516	-961.64520	
5481	54.800	-800.53522	8.91673	-638.78076	769.32758	10.17571	-644.42566	-708.76721	8.09043	496.07260	732.01489	5.98630	504.95743	-14.20528	1308.16858	-961.58038	
5482	54.810	-800.67700	8.86663	-638.71515	769.31128	10.11303	-644.42010	-708.86456	8.03559	496.03711	731.92249	5.94919	504.93582	-14.19310	1308.18188	-961.62329	
5483	54.820	-800.63599	8.82247	-638.74036	769.33539	10.08777	-644.38062	-708.86938	7.95422	496.02313	731.85608	5.87547	504.89484	-14.23779	1308.14111	-961.63074	
5484	54.830	-800.57196	8.89948	-638.75342	769.36353	10.08453	-644.35956	-708.76093	7.88301	496.07248	732.29510	6.19052	505.16476	-14.25969	1308.12402	-961.71783	
5485	54.840	-800.52258	8.97209	-638.74823	769.32532	10.13234	-644.37115	-708.67688	7.93810	496.10004	732.48340	6.37385	505.23212	-14.18802	1308.16724	-961.82080	
5486	54.850	-800.55090	8.95203	-638.73944	769.32965	10.15137	-644.38269	-708.67767	7.97107	496.12488	732.55237	6.37315	505.14584	-14.15822	1308.24622	-961.84961	
5487	54.860	-800.63232	8.89416	-638.69458	769.37225	10.15085	-644.41962	-708.74036	7.96158	496.07874	732.44672	6.31951	505.15613	-14.21973	1308.23987	-961.89844	
5488	54.870	-800.67200	8.85319	-638.69495	769.35571	10.13952	-644.38275	-708.85455	7.95313	496.06683	732.39752	6.31284	505.18387	-14.13727	1308.15039	-961.83990	
5489	54.880	-800.65631	8.78331	-638.75726	769.31256	10.02201	-644.37769	-708.83002	7.91778	496.11176	732.41687	6.32268	505.23831	-14.14805	1308.09192	-961.81763	
5490	54.890	-800.56573	8.76555	-638.84619	769.27295	10.06490	-644.36627	-708.78168	7.96828	496.06668	732.54736	6.43204	505.33163	-14.19700	1308.08179	-961.85809	
5491	54.900	-800.52759	8.90302	-638.81177	769.39319	10.09623	-644.39746	-708.72980	8.01486	496.05811	732.61084	6.42465	505.25085	-14.19557	1308.14099	-961.84711	
5492	54.910	-800.59442	8.99506	-638.73541	769.34698	10.17465	-644.40247	-708.68872	7.99839	496.08890	732.62024	6.44593	505.24237	-14.15281	1308.21118	-961.93585	
5493	54.920	-800.66852	8.91449	-638.69604	769.26263	10.20407	-644.47028	-708.64044	7.79110	496.20636	732.64545	6.43290	505.26865	-14.19081	1308.20154	-961.95282	
5494	54.930	-800.68427	8.86004	-638.62701	769.33661	10.11382	-644.40173	-708.38751	7.22742	496.43909	732.62213	6.40335	505.37384	-14.22572	1308.20105	-961.85614	
5495	54.940	-800.59760	8.83524	-638.74536	769.31848	10.03833	-644.36475	-708.61957	7.58332	496.12674	732.61108	6.42487	505.47626	-14.26271	1308.15894	-961.73798	
5496	54.950	-800.55060	8.97420	-638.77686	769.33685	10.05897	-644.38837	-708.62231	7.73953	496.10196	732.67236	6.49073	505.45966	-14.19412	1308.16699	-961.64996	
5497	54.960	-800.56110	9.03148	-638.75873	769.36395	10.11686	-644.39886	-708.65131	7.82313	496.08234	732.40717	6.62663	505.55844	-14.26704	1308.25195	-961.65472	
5498	54.970	-800.64862	8.93720	-638.69196	769.34143	10.16716	-644.38300	-708.65863	7.76694	496.10681	732.76044	6.56681	505.39151	-14.29857	1308.20886	-961.65875	
5499	54.980	-800.68762	8.85672	-638.65833	769.37897	10.10427	-644.38837	-708.59778	7.63516	496.16080	732.73682	6.50438	505.41617	-14.24265	1308.12061	-961.59930	
5500	54.990	-800.63116	8.80386	-638.75262	769.36932	10.07249	-644.35840	-708.92505	8.14908	495.79742	732.50922	6.63679	505.62936	-14.24990	1308.07751	-961.70398	
5501	55.000	-800.59430	8.92985	-638.73077	769.33344	10.07180	-644.36652	-708.73547	7.93858	496.04498	732.94257	6.67267	505.56128	-14.15144	1308.10925	-961.83124	
5502	55.010	-800.48334	8.96806	-638.79944	769.37323	10.07995	-644.34863	-708.72534	7.97010	496.11981	732.95673	6.70516	505.56342	-14.12704	1308.21802	-961.99518	
5503	55.020	-800.60046	9.01186	-638.69647	769.28564	10.14459	-644.37854	-708.75250	7.99565	496.09860	732.60870	6.73528	505.65161	-14.19389	1308.24438	-962.11945	
5504	55.030	-800.64130	8.93206	-638.66846	769.35089	10.20297	-644.39899	-708.43176	7.59228	496.16882	732.87384	6.61786	505.53894	-14.16285	1308.30664	-962.07867	
5505	55.040	-800.69043	8.87904	-638.65594	769.29230	10.19810	-644.42999	-708.45239	7.49649	496.20950	732.86279	6.60245	505.55127	-14.06677	1308.18530	-961.90271	
5506	55.050	-800.55286	8.94656	-638.73334	769.31042	10.22161	-644.46387	-708.37555	7.55855	496.10526	732.93640	6.68159	505.55405	-14.14494	1308.13989	-961.80927	
5507	55.060	-800.46008	9.08860	-638.83600	769.33954	10.21506	-644.42712	-708.39282	7.67225	496.18787	733.02563	6.74283	505.54221	-14.22178	1308.15796	-961.64282	
5508	55.070	-800.56403	8.99155	-638.78357	769.38861	10.04704	-644.32825	-708.48468	7.79758	496.06094	733.14960	6.75663	505.62344	-14.20176	1308.17407	-961.57727	
5509	55.080	-800.70667	8.65387	-638.78271	769.36584	10.10116	-644.39026	-708.53717	7.82195	496.03714	733.34454	6.82362	505.81534	-14.24344	1308.20227	-961.61511	
5510	55.090	-800.69434	8.66836	-638.81403	769.33832	10.20613	-644.43646	-708.55804	7.74677	496.09924	733.32788	6.88520	505.86417	-14.13375	1308.12122	-961.60675	
5511	55.100	-800.67706	8.70582	-638.79156	769.30261	10.16284	-644.40155	-708.57678	7.71798	496.09061	733.35339	6.86236	505.85516	-14.15311	1308.16138	-961.68445	
5512	55.110	-800.58319	8.90152	-638.76093	769.34509	10.12331	-644.38947	-708.56458	7.81869	496.18811	733.32446	6.85788	505.89505	-14.14232	1308.18884	-961.86407	
5513	55.120	-800.56287	9.04028	-638.69843	769.33514	10.21231	-644.43018	-708.55542	7.87384	496.15787	733.39697	6.95001	505.86813	-14.11657	1308.24585	-961.90137	
5514	55.130	-800.64337	8.85814	-638.70465	769.36414	10.22700	-644.41376	-708.48859	7.85255	496.11655	733.45233	6.94804	505.84540	-14.14165	1308.22217	-961.90637	
